<svg width="15" height="14" viewBox="0 0 15 14" fill="none" xmlns="http://www.w3.org/2000/svg">
<path d="M3.24525 1.49977C3.24505 1.8976 3.08682 2.27905 2.80538 2.56021C2.52393 2.84138 2.14232 2.99922 1.7445 2.99902C1.34667 2.99882 0.96522 2.8406 0.684056 2.55915C0.402893 2.27771 0.245048 1.8961 0.245247 1.49827C0.245446 1.10045 0.403672 0.718997 0.685117 0.437833C0.966562 0.156669 1.34817 -0.00117529 1.746 -0.000976375C2.14382 -0.000777462 2.52527 0.157449 2.80644 0.438894C3.0876 0.720339 3.24545 1.10195 3.24525 1.49977ZM3.29025 4.10977H0.290247V13.4998H3.29025V4.10977ZM8.03025 4.10977H5.04525V13.4998H8.00025V8.57227C8.00025 5.82727 11.5777 5.57227 11.5777 8.57227V13.4998H14.5402V7.55227C14.5402 2.92477 9.24525 3.09727 8.00025 5.36977L8.03025 4.10977Z" fill="#75757F"/>
</svg>
