<svg width="15" height="13" viewBox="0 0 15 13" fill="none" xmlns="http://www.w3.org/2000/svg">
<path d="M12.3992 2.65097C13.0276 2.24332 13.4437 1.68692 13.6475 0.9793C13.0362 1.32202 12.4272 1.55707 11.819 1.68692C11.2723 1.0656 10.5801 0.75 9.75027 0.75C8.93909 0.75 8.25391 1.0508 7.69472 1.63597C7.13864 2.22524 6.85787 2.94108 6.85787 3.77692C6.85787 4.03087 6.88821 4.25771 6.94887 4.45002C4.55656 4.36373 2.57645 3.31503 1.01631 1.29654C0.75188 1.79048 0.619665 2.29346 0.619665 2.81369C0.619665 3.88294 1.04664 4.73028 1.89904 5.35242C1.41295 5.30887 0.984422 5.17901 0.619665 4.96615C0.619665 5.72966 0.831987 6.36742 1.25741 6.92875C1.68438 7.48433 2.23269 7.83856 2.90232 7.98978C2.65966 8.05553 2.40379 8.08676 2.14091 8.08676C1.89826 8.08676 1.72638 8.06539 1.6245 8.01854C1.80338 8.64069 2.14091 9.14532 2.62855 9.53159C3.11464 9.91951 3.67383 10.1242 4.30224 10.1422C3.2663 11.0011 2.08181 11.426 0.741769 11.426C0.413565 11.426 0.181023 11.421 0.0402527 11.3947C1.36007 12.3004 2.82921 12.75 4.45467 12.75C6.11825 12.75 7.58817 12.3046 8.86754 11.4137C10.1469 10.5277 11.0911 9.43461 11.6977 8.14757C12.3075 6.86218 12.6092 5.52419 12.6092 4.12703V3.7424C13.1987 3.27394 13.6755 2.7463 14.0403 2.1636C13.5114 2.40441 12.9646 2.56796 12.3992 2.65097Z" fill="#75757F"/>
</svg>
