<svg width="17" height="13" viewBox="0 0 17 13" fill="none" xmlns="http://www.w3.org/2000/svg">
<path d="M15.7059 2.62759C15.5219 1.88853 14.9797 1.30647 14.2913 1.10894C13.0436 0.75 8.04025 0.75 8.04025 0.75C8.04025 0.75 3.03694 0.75 1.78916 1.10894C1.10077 1.3065 0.558602 1.88853 0.374588 2.62759C0.0402527 3.96719 0.0402527 6.76213 0.0402527 6.76213C0.0402527 6.76213 0.0402527 9.55706 0.374588 10.8967C0.558602 11.6357 1.10077 12.1935 1.78916 12.3911C3.03694 12.75 8.04025 12.75 8.04025 12.75C8.04025 12.75 13.0436 12.75 14.2913 12.3911C14.9797 12.1935 15.5219 11.6357 15.7059 10.8967C16.0403 9.55706 16.0403 6.76213 16.0403 6.76213C16.0403 6.76213 16.0403 3.96719 15.7059 2.62759ZM6.40388 9.29972V4.22453L10.5857 6.76219L6.40388 9.29972Z" fill="#75757F"/>
</svg>
