<svg width="17" height="17" viewBox="0 0 17 17" fill="none" xmlns="http://www.w3.org/2000/svg">
<path fill-rule="evenodd" clip-rule="evenodd" d="M4.84025 0.75H11.2403C13.8912 0.75 16.0403 2.89903 16.0403 5.55V11.95C16.0403 14.601 13.8912 16.75 11.2403 16.75H4.84025C2.18929 16.75 0.0402527 14.601 0.0402527 11.95V5.55C0.0402527 2.89903 2.18929 0.75 4.84025 0.75ZM4.84025 2.35C3.07294 2.35 1.64025 3.78269 1.64025 5.55V11.95C1.64025 13.7173 3.07294 15.15 4.84025 15.15H11.2403C13.0076 15.15 14.4403 13.7173 14.4403 11.95V5.55C14.4403 3.78269 13.0076 2.35 11.2403 2.35H4.84025ZM8.04025 12.75C5.83111 12.75 4.04025 10.9591 4.04025 8.75C4.04025 6.54086 5.83111 4.75 8.04025 4.75C10.2494 4.75 12.0403 6.54086 12.0403 8.75C12.0403 10.9591 10.2494 12.75 8.04025 12.75ZM8.04025 11.15C9.36574 11.15 10.4403 10.0755 10.4403 8.75C10.4403 7.42452 9.36574 6.35 8.04025 6.35C6.71477 6.35 5.64025 7.42452 5.64025 8.75C5.64025 10.0755 6.71477 11.15 8.04025 11.15ZM12.0403 5.55C11.5984 5.55 11.2403 5.19183 11.2403 4.75C11.2403 4.30817 11.5984 3.95 12.0403 3.95C12.4821 3.95 12.8403 4.30817 12.8403 4.75C12.8403 5.19183 12.4821 5.55 12.0403 5.55Z" fill="#75757F"/>
</svg>
